<svg id="Ebene_2" data-name="Ebene 2" xmlns="http://www.w3.org/2000/svg" viewBox="0 0 1359.25 261.48"><defs><style>.cls-1,.cls-4{fill:#fdfffd;}.cls-1,.cls-2,.cls-3,.cls-5{stroke:#000;stroke-miterlimit:10;}.cls-1{stroke-width:5px;}.cls-2{stroke-width:0.25px;}.cls-3{fill:#00c800;}.cls-3,.cls-5{stroke-width:0.5px;}.cls-5{fill:none;}.cls-6{fill:#fff;}</style></defs><circle class="cls-1" cx="679.34" cy="130.74" r="128.24"/><path d="M634.77,84.43q3.39-3.93,6-2.32c.84,1.24,1.15,2.15.94,2.72a8.28,8.28,0,0,0-2.27,1.8q-2.24,3.59,3,11.49a12.77,12.77,0,0,0,3.84,3.47l.81.51q6,2.41,8.61-1.75l.16-.25q3-6,1.14-7.85-3.31-1.91-3.72-1.26-1.65,3.26-2.61,4.78c-.67,1.07-1.76,1.22-3.29.45L646,95.38a60.91,60.91,0,0,1,3.79-9c.61-1,2-1.26,4.31-.88a3.9,3.9,0,0,0,1.3,1.54l1.08.67a17.59,17.59,0,0,0,6.46,2.26l1.08.68c.29.17.43.74.44,1.7l-.16.26a3.73,3.73,0,0,1-2.36,1.37,11.21,11.21,0,0,1-1.7,7.51q-4.82,7.71-15.81,3.65l-3.5-2.19q-4.78-3.62-7.12-12.66C633.73,87.49,634.06,85.56,634.77,84.43Z" transform="translate(-60.27 -17.76)"/><path d="M653.45,62.11q4.47-2.34,6.36-.39,8-2.17,13.2,3.16l.89.92q5.7,5.86,4.78,14.9a12.48,12.48,0,0,1-3.23,5.79q-4.11,4-12.94-.74a11.54,11.54,0,0,1-2.22-1.85L659.4,83q-7.85-8.08-7.24-18.74A11.92,11.92,0,0,1,653.45,62.11Zm9.42,18.38q5.77,6,8.82,3l.65-.63a8.67,8.67,0,0,0,1.23-7,14.68,14.68,0,0,0-3.82-8.28l-.44-.46q-4.38-4.5-9.24-1.69c-1.11-.38-1.77-.48-2-.29l-.65.63a12.7,12.7,0,0,0,1,7A21,21,0,0,0,662.87,80.49Z" transform="translate(-60.27 -17.76)"/><path d="M678.68,42.72q4.92-1.14,6.26,1.22,8.29-.07,12,6.4l.62,1.11q4,7.11.86,15.62a12.28,12.28,0,0,1-4.59,4.79q-5,2.82-12.33-4a11.42,11.42,0,0,1-1.68-2.35l-.63-1.1q-5.55-9.81-2.27-20A11.53,11.53,0,0,1,678.68,42.72Zm4.47,20.16q4.08,7.21,7.78,5.12l.78-.44a8.67,8.67,0,0,0,3-6.44,14.78,14.78,0,0,0-1.6-9l-.32-.56c-2.06-3.63-4.9-5-8.51-4q-1.47-1-1.83-.78l-.79.44a12.84,12.84,0,0,0-.86,7.07A21,21,0,0,0,683.15,62.88Z" transform="translate(-60.27 -17.76)"/><path d="M699.72,31.48l2.93-.72q4-1,16.23,5.2,6.72,5.76,7.51,9l.23.94q1.82,7.41-10.57,12.76l-1.18.29q-7.61,1.88-10-1.47l-.16-.63c-.12-.51.2-.91.95-1.21a11.61,11.61,0,0,0,5.08.39l2.93-.72-.15-.62q-2.64.65-6.07-13.26c-.33-1.35-.73-3.44-1.22-6.27a6.58,6.58,0,0,0-2.8,0,3.09,3.09,0,0,1-2.18,2.51,25.13,25.13,0,0,1-2.38-3.35A2.91,2.91,0,0,1,699.72,31.48Zm11.15,4.8c-.14,1.16.25,3.57,1.16,7.26l.22.93a35.71,35.71,0,0,0,3.6,8.3,3.57,3.57,0,0,0-.21,1.7l.3-.08q7.56-4.72,6.32-9.76Q721,41.26,714.48,37A9.9,9.9,0,0,0,710.87,36.28Z" transform="translate(-60.27 -17.76)"/><path d="M765.94,29.12q3.42,1.53,3,3.76a2.64,2.64,0,0,1,.14,1,93.09,93.09,0,0,0-3.28,11.71l-.16.93a26.89,26.89,0,0,0-.34,9L764.89,58c-.31.6-1,.81-2,.64q-3.6-.63-7-19.66-.49-.09-1.32-4.76l-.6-.11a36.94,36.94,0,0,0-2.67,8.28l.19.67-.41.58q-.33,6.42,1.28,6.7a11.28,11.28,0,0,1,.17,2.61c-.33,1.88-1.19,2.69-2.59,2.45l-.59-.1q-2-.35-2.64-9.52a48,48,0,0,1,.61-7,39.72,39.72,0,0,1,4-10.62,4.51,4.51,0,0,1,3.5-.68,7.51,7.51,0,0,1,3.71,5.17c1.39,6.51,2.33,9.92,2.82,10.2a99.28,99.28,0,0,0,2.76-10.52l.05-.32a2.6,2.6,0,0,0-.08-1.31A3.17,3.17,0,0,1,765.94,29.12Z" transform="translate(-60.27 -17.76)"/><path d="M776.41,35.14l.29.1q2.81,2,2.26,3.53-1.56,3.4-2.12,5a83.6,83.6,0,0,0-3.37,14.72,7.34,7.34,0,0,1,.3,4.49,2,2,0,0,1-2.53.79l-.29-.1q-3.33-6,.24-15.83c-.19-.07-.12-.83.19-2.3l2-3.7a26.51,26.51,0,0,1,1.16-5C775.28,35.52,775.91,35,776.41,35.14Z" transform="translate(-60.27 -17.76)"/><path d="M800.24,42.1q4.05,3.26,2.54,5.88c-1.2.88-2.1,1.23-2.68,1a8.08,8.08,0,0,0-1.88-2.2q-3.66-2.12-11.38,3.39a12.86,12.86,0,0,0-3.32,4L783,55q-2.2,6.09,2.07,8.54l.25.15q6.12,2.78,7.88.85c1.2-2.25,1.57-3.5,1.13-3.76-2.21-1-3.83-1.83-4.88-2.43s-1.28-1.72-.57-3.27l.8-1.39a60.8,60.8,0,0,1,9.18,3.46c1,.57,1.33,2,1,4.27a3.83,3.83,0,0,0-1.49,1.36l-.63,1.1a17.49,17.49,0,0,0-2,6.55l-.64,1.1c-.17.29-.73.46-1.68.5l-.27-.15a3.74,3.74,0,0,1-1.46-2.31,11.21,11.21,0,0,1-7.56-1.42Q776.3,63.62,780,52.48L782,48.9q3.45-4.92,12.39-7.57C797.15,41.18,799.09,41.44,800.24,42.1Z" transform="translate(-60.27 -17.76)"/><path d="M815.49,54.29l.21.2q1.93,2.82.95,3.9c-3,2.39-5.57,4.55-7.59,6.45,0,.83,1.53,2.71,4.69,5.62l.22.2,5.21-4.3a2.34,2.34,0,0,1,.42-.91,4.48,4.48,0,0,1,4.14-1.38q1.8,3,1.16,3.66l-.87.93q-3.13.74-7.16,5.11l-4.1,4.45a17.36,17.36,0,0,0-3.63,6.18,1.63,1.63,0,0,1-2.2-.3q-2.19-3.43,2.49-8.52l.66-.71c.57-.62-.77-2.44-4-5.44l-.45-.41-1.52,1.64q-4.74,5.59-3.85,6.42c-1.19.69-2.06.89-2.62.61l-.44-.41q-2.23-2.06,3.17-7.91l.43-.46a.28.28,0,0,0,0-.44.27.27,0,0,1,.43,0l.86-1.36,1.73-1.87a.29.29,0,0,0,0-.45.27.27,0,0,1,.44,0,17.16,17.16,0,0,1,1.51-2.08l.65-.26a3.36,3.36,0,0,1,.85-1.38l1.53-1.2A10,10,0,0,1,810.05,58a2.46,2.46,0,0,1,.87-.49L812,55.84l1.07-1.16C814.5,54.25,815.3,54.12,815.49,54.29Z" transform="translate(-60.27 -17.76)"/><path d="M841.37,82.24a15.1,15.1,0,0,1-.26,4.18l1.53,2.26q3.89,5.77.71,7.9l-.25.18-1.83.14q-2.53-4.34-4-6.45l-1.18-1.76-1.33.9a3.25,3.25,0,0,1-1.49.63A118.65,118.65,0,0,0,821.71,101a2.07,2.07,0,0,1-2.42-.18c-1.69-2.52-.25-5.31,4.32-8.4a44.79,44.79,0,0,1,7-6.17l2.38-1.6q.91-.61-2.31-6.83l.27-.18-.6-.32-1.19-1.76c-.17-.25.07-1.62.69-4.11l.54-.36q2.16-.21,2.76.69a62,62,0,0,1,4.43,9.42c.19.28,1.34.47,3.46.58Z" transform="translate(-60.27 -17.76)"/><circle class="cls-2" cx="679.34" cy="130.74" r="85.55"/><path class="cls-3" d="M697.32,149.65c2.52,4.21,5.35,1.78,5.21,3s-.52,23.66-.52,23.66l7.9.19s10.26-54.53,1.82-46.6C700.93,140,694.34,144.68,697.32,149.65Z" transform="translate(-60.27 -17.76)"/><path class="cls-3" d="M832.12,146.7c-2.52,4.21-5.36,1.78-5.21,3s.52,23.66.52,23.66l-7.91.19S809.26,119,817.71,127c1.41,1.33,2.75,2.55,4,3.7.89.82,1.73,5.8,2.54,6.54.5.47,1-3.27,1.48-2.83C831.47,139.74,834.26,143.14,832.12,146.7Z" transform="translate(-60.27 -17.76)"/><path class="cls-3" d="M759.62,141.58l-45.22-16s-3-13.29,1.34-17.84c8.46-8.87,38.69-1.78,46.62,7.57l-4.87,12.87,5.69,7.85Z" transform="translate(-60.27 -17.76)"/><path class="cls-3" d="M763.18,141.67l50.49-14.29S816,108.31,811.58,104c-8.56-8.46-39.89,2.83-47.1,12.54l-2.87,11.22,3.33,8.35Z" transform="translate(-60.27 -17.76)"/><path class="cls-3" d="M761.22,162.79l-49.05-10c-1.74-9.55,1.33-21.74,1.33-21.74l45.78,12.53,3.08,7.86-3.48,7.74Z" transform="translate(-60.27 -17.76)"/><path class="cls-3" d="M765.92,162.52l50.85-11.3c1.25-9.72-2.49-19.61-2.49-19.61l-51.92,11.9,2.51,7.91-2.51,7.38Z" transform="translate(-60.27 -17.76)"/><path class="cls-3" d="M707.6,174.66c.69,0,30,2.37,57,1.73l2.74-.06s53.94-8.57,54.61-8.59c1.81,0-.2-13.8-1.63-13.76-.79,0-52.38,10.68-52.38,10.68l-2.71.06c-27.16.64-55.08-9.4-55.9-9.38C707.86,155.37,705.79,174.7,707.6,174.66Z" transform="translate(-60.27 -17.76)"/><path class="cls-4" d="M664.22,119.82c-1.64,3.72-.28,9.63,0,12.39.17,1.6,2.56-1.1,4-1.92,2.24-1.27,4,.44,5.2,2.66,3.07,5.74,6.23,8.88,6.68,15.31.13,2,2.13,5.84,3.13,7.54.81,1.39,5.08,3.73,6.41,4.68,2.75,2,10.34,12.15,10.64,20.81.54,16.14-3.85,24.58-2.63,27.13.61,1.28,3,0,2.19,2.23-1.41,3.95-3.74,4.26-4.2,5.13a13.57,13.57,0,0,0-.9,3c3.32,1.88,20.4,7.38,20.4,7.38,11.8-7.31-7.58-5.65-7.94-15.12,0-1,2.5-.51,3.31-.95,1.07-.57,2.62-6.43,3-16.05a233.86,233.86,0,0,0-.73-29.12c-.87-7.84-2.29-7.52,16.1-9.9,8.87-1.14,20.56-2.16,29.43-3.27,3.33-.42,3.15-1.93,4.88-2.3,3.28-.7,3.94,1.6,6.27,1.53,1.5,0,.22-16.23.22-16.23-4.67-1.47-3.61,6.93-5.1,7.87-1,.62-1.1-3.76-10.71-2.79-7.69.78-18.71-1.76-26.44-1.81-10.06-.06-25.85,2.65-28.41,1.6-5.1-2.09-3.86-5.34,2.11-8.08,2.5-1.15,15.5-6.47,18.87-14.42.79-1.88,2.21-2.71,3.13-4.53.64-1.28,2.18-5.79.82-5.43s-1.28,1.42-2,2.43c-.17-4.17-.27-6.81-.8-7-1.25-.53-1.6,4-1.75,8.78-.15,5.08-3.48,6.45-8.37,8.44s-6.12,2.85-10.49,2.85c-3.43,0-11,1.32-5.32-7.17,1.22-1.85,3.53-6.8,2-10.29-1.48-3.29-6.74-5.14-8.75-5.88-3.1-1.15-6.14-.21-8.66,1.86s-4.24,10.58-1.53,12.24c.49.31-5.93.3-7.28.82C670.16,114.53,665.86,116.1,664.22,119.82Z" transform="translate(-60.27 -17.76)"/><path class="cls-5" d="M664.22,119.82c-1.64,3.72-.28,9.63,0,12.39.17,1.6,2.56-1.1,4-1.92,2.24-1.27,4,.44,5.2,2.66,3.07,5.74,6.23,8.88,6.68,15.31.13,2,2.13,5.84,3.13,7.54.81,1.39,5.08,3.73,6.41,4.68,2.75,2,10.34,12.15,10.64,20.81.54,16.14-3.85,24.58-2.63,27.13.61,1.28,3,0,2.19,2.23-1.41,3.95-3.74,4.26-4.2,5.13a13.57,13.57,0,0,0-.9,3c3.32,1.88,20.4,7.38,20.4,7.38,11.8-7.31-7.58-5.65-7.94-15.12,0-1,2.5-.51,3.31-.95,1.07-.57,2.62-6.43,3-16.05a233.86,233.86,0,0,0-.73-29.12c-.87-7.84-2.29-7.52,16.1-9.9,8.87-1.14,20.56-2.16,29.43-3.27,3.33-.42,3.15-1.93,4.88-2.3,3.28-.7,3.94,1.6,6.27,1.53,1.5,0,.22-16.23.22-16.23-4.67-1.47-3.61,6.93-5.1,7.87-1,.62-1.1-3.76-10.71-2.79-7.69.78-18.71-1.76-26.44-1.81-10.06-.06-25.85,2.65-28.41,1.6-5.1-2.09-3.86-5.34,2.11-8.08,2.5-1.15,15.5-6.47,18.87-14.42.79-1.88,2.21-2.71,3.13-4.53.64-1.28,2.18-5.79.82-5.43s-1.28,1.42-2,2.43c-.17-4.17-.27-6.81-.8-7-1.25-.53-1.6,4-1.75,8.78-.15,5.08-3.48,6.45-8.37,8.44s-6.12,2.85-10.49,2.85c-3.43,0-11,1.32-5.32-7.17,1.22-1.85,3.53-6.8,2-10.29-1.48-3.29-6.74-5.14-8.75-5.88-3.1-1.15-6.14-.21-8.66,1.86s-4.24,10.58-1.53,12.24c.49.31-5.93.3-7.28.82C670.16,114.53,665.86,116.1,664.22,119.82Z" transform="translate(-60.27 -17.76)"/><path d="M657.42,193.84l.53,1c1.25,3.52,1.11,5.69-.41,6.53-1.08,0-1.78-.13-2.11-.53-.86-2-1.41-3.24-1.67-3.71q-8.93-5.21-13.76-2.55l-1.67.92a3.06,3.06,0,0,0-.92,4.3q.8,1.46,6.32,6.21a15.16,15.16,0,0,0,2.33,2.91c.19,1,.15,1.61-.13,1.76-1.93.22-4.31-.57-7.13-2.39a20.8,20.8,0,0,1-4.23-4.42,11.18,11.18,0,0,1,.7-12.6,31.08,31.08,0,0,1,2.74-2.33q5.38-3,17,2.47A14.69,14.69,0,0,1,657.42,193.84Z" transform="translate(-60.27 -17.76)"/><path d="M671.51,210.56q3.18,5.17,1.26,7.1,3.43,9.1-1.82,14.38l-.9.9q-5.76,5.79-15.9,3.95a17.87,17.87,0,0,1-6.84-4.13q-4.93-4.92-.83-14.31a9.63,9.63,0,0,1,1.76-2.29l.9-.91q8-8,19.84-6.33A16.18,16.18,0,0,1,671.51,210.56Zm-19.16,8.78q-5.85,5.88-2.18,9.53l.78.77a10.69,10.69,0,0,0,7.89,2q5.63-.41,8.69-3.48l.45-.46q4.42-4.44.68-10.11c.29-1.19.31-1.91.08-2.16l-.79-.78a13.26,13.26,0,0,0-7.69.42A18,18,0,0,0,652.35,219.34Z" transform="translate(-60.27 -17.76)"/><path d="M685.18,224.82l.64.36q2,2.56,1.83,4.31-6.61,4.24-9,8.49-3.15,7.36-.66,8.76,3.5,1.95,9.4-1.7l.15-.26a38,38,0,0,0,2-4.37l.95-.93c.07-.14.27-.75.6-1.84q3.58-5.67,4.85-6.42,3.19,1.78,3.27,4.75a19.16,19.16,0,0,0-2.67,3.25l-1.4,2.51a2.18,2.18,0,0,1-.95.93c-.1.18-1.17,3.1-3.21,8.78a9.4,9.4,0,0,0-5.89.73c-1.4.76-3.63.73-6.71-.1q-7.2-4-6.11-13.27.19-.35,1.23-3Q682.77,223.47,685.18,224.82Z" transform="translate(-60.27 -17.76)"/><path d="M714.45,237.06l1.06.3q5.09,2.35,4.38,4.87c-.72.8-1.34,1.18-1.86,1.13-2-.79-3.3-1.26-3.81-1.4q-10,2.72-11.46,8l-.52,1.84a3.06,3.06,0,0,0,2.43,3.66c1.06.3,4,.25,8.85-.16a15.46,15.46,0,0,0,3.72.38c.86.58,1.25,1,1.16,1.33-1.19,1.53-3.43,2.67-6.7,3.41a20.77,20.77,0,0,1-6.11-.08,11.16,11.16,0,0,1-8.5-9.32,29.29,29.29,0,0,1,.25-3.59Q699,241.55,711,237.08A14.92,14.92,0,0,1,714.45,237.06Z" transform="translate(-60.27 -17.76)"/><path d="M725.92,239.53l.36,0q4,1,4,2.43a93.15,93.15,0,0,0-2,9.8q.93,1,8.79,1.41l.36,0,1.46-6.63a2.15,2.15,0,0,1-.32-1,4.35,4.35,0,0,1,2.77-3.68c2.67.77,4,1.48,4,2.11l-.06,1.27c-1.56,1.7-2.45,4.53-2.65,8.49l-.32,6a14.64,14.64,0,0,0,1.49,7.09c-.3.84-1.06,1.22-2.29,1.16q-4.74-1.29-4.38-8.19l.05-1c0-.85-2.63-1.41-8-1.69l-.75,0-.11,2.24c0,4.89.48,7.35,1.46,7.41-.56,1.29-1.22,2-2,2.12l-.73,0q-3.69-.19-3.28-8.15l0-.63c0-.22-.1-.33-.34-.34,0-.22.14-.32.38-.31l-.28-1.6.14-2.54c0-.22-.11-.33-.36-.34q0-.33.39-.3a13.57,13.57,0,0,1-.24-2.57l.41-.61a2.74,2.74,0,0,1-.29-1.61L724,248a7.91,7.91,0,0,1-.26-2.24,2,2,0,0,1,.42-.93l-.27-1.94.08-1.58C725,240.12,725.61,239.51,725.92,239.53Z" transform="translate(-60.27 -17.76)"/><path d="M773.29,234.08l1.39-.49q5.13-1,6.24,2.22c.1.28-.31,1-1.22,2.11l-4.29,1.14q-3.9,1.35-5.9,7.77.94,1.08,13.2,3.19,9,2.37,9.83,4.7c.44,1.27-1.35,2.9-5.35,4.88l-2.44.85q-6,2.08-13.41-3.8l-.52-1.5a.69.69,0,0,1,.48-.84l1.75-.61q6.06,3.3,8.64,2.41l1.4-.48q.69-.24.48-.84-4.27-1.68-13.45-2.77c-4-1-6.26-2.31-6.85-4Q764.65,237.06,773.29,234.08Z" transform="translate(-60.27 -17.76)"/><path d="M786.87,231.1l.33-.19q4-1.14,4.78.24c1,2.3,1.78,3.93,2.32,4.9a68.79,68.79,0,0,0,9.27,12c2.06.67,3.38,1.51,3.94,2.52a2.37,2.37,0,0,1-1.47,2.65l-.32.19q-7.66-.84-12.8-10c-.21.11-.78-.41-1.73-1.59l-1.39-4a21.79,21.79,0,0,1-3.12-4.09C786.24,232.3,786.31,231.41,786.87,231.1Z" transform="translate(-60.27 -17.76)"/><path d="M794.06,223.57l2.75-2.44q3.74-3.31,19.17-5.09,9.46,1.2,11.67,3.68l.64.73q5.07,5.7-5.58,18.16l-1.11,1q-7.14,6.34-11.09,4.73l-.43-.48c-.35-.39-.19-1,.48-1.69a16.14,16.14,0,0,0,5.47-2.73l2.75-2.44-.42-.48q-2.49,2.2-12-8.51-1.38-1.56-4-5a9.36,9.36,0,0,0-2.92,1.72,3.86,3.86,0,0,1-1.2,3.64,23.93,23.93,0,0,1-3.92-1.63A2.87,2.87,0,0,1,794.06,223.57Zm13.69-2.36q.53,1.71,4.31,6l.63.71a29.18,29.18,0,0,0,7.31,5.44,3.08,3.08,0,0,0,.5,1.69l.28-.24q5.88-8.94,2.43-12.82-2.72-2.37-11.36-2.25A13.15,13.15,0,0,0,807.75,221.21Z" transform="translate(-60.27 -17.76)"/><path d="M827.48,187.7q2.4-1.87,3.87-1.56,2.08,1.22-1.09,10-1.25,5.26-.42,5.75,3.35,1.22,4,.18,1.85-8.82,3.12-11,2.18-2.15,3.69-1.26,1.85,1.08-.22,5.42l-1.73,8c-.19.47-.13.79.18,1l.27.16q3.76,1.06,5.62-.12a33.66,33.66,0,0,1,1-4.95l.56-.95c.75-1.28,1.68-1.6,2.77-1a8.12,8.12,0,0,1-.16,8.47q-2.41,4.11-10.61,3.61-1-.6-4.25.93a12.85,12.85,0,0,1-2.46-2.73,13.37,13.37,0,0,0-3.12-1l-.18.31q-2.19,5-2.44,5.41c-.76,1-1.35,1.35-1.76,1.11q-2.58-1.52-1.62-4.8l3.93-18.65Z" transform="translate(-60.27 -17.76)"/><path class="cls-6" d="M85.33,154.49A24.3,24.3,0,0,1,72,159.13c-13.76,0-12.56-16.64-10.32-27.28,2.16-10,8.16-27.52,21.44-27.52,6,0,9.6,3.68,11.52,8.56l-5.36,2.88c-1.2-3.44-3.36-6.4-7.6-6.4-8.88,0-13.12,16.32-14.48,22.64-3.92,18.32.64,22.08,5.92,22.08a14.49,14.49,0,0,0,7.52-2.48l3.44-16.08h-10l1-4.8H90.45Z" transform="translate(-60.27 -17.76)"/><path class="cls-6" d="M138.93,131.69c-1.44,6.72-5.6,27.44-20.64,27.44-15.2,0-10.4-20.56-9-27.44,1.84-8.8,6.4-27.36,20.64-27.36C145,104.33,140.45,124.65,138.93,131.69Zm-24,0c-3,14.4-3.12,22.4,4.4,22.4,9.28,0,12-13.12,14-22.4,2.16-10.08,5-22.32-4.48-22.32S116.61,123.85,114.93,131.69Z" transform="translate(-60.27 -17.76)"/><path class="cls-6" d="M186.93,131.69c-1.44,6.72-5.6,27.44-20.64,27.44-15.2,0-10.4-20.56-9-27.44,1.84-8.8,6.4-27.36,20.64-27.36C193,104.33,188.45,124.65,186.93,131.69Zm-24,0c-3,14.4-3.12,22.4,4.4,22.4,9.28,0,12-13.12,14-22.4,2.16-10.08,5-22.32-4.48-22.32S164.61,123.85,162.93,131.69Z" transform="translate(-60.27 -17.76)"/><path class="cls-6" d="M210.29,109.85l1-4.8h14.08c10.72,0,16,4.72,11.36,26.72-2.48,11.76-6.32,26.64-22.56,26.64H200l1-4.8h4.32l9.28-43.76Zm.4,43.76h4.4c6.48,0,11.76-1.68,16.08-21.84,4.32-20.32-.8-21.92-5.52-21.92H220Z" transform="translate(-60.27 -17.76)"/><path class="cls-6" d="M307.89,105.05h6.72l6.32,44.88.16-.16,2.32-11.92,7-32.8h5.36l-11.36,53.36h-6.72l-6.32-45-.16.16-2.32,12.08-7,32.72h-5.36Z" transform="translate(-60.27 -17.76)"/><path class="cls-6" d="M366.05,109.85h-7.2l1-4.8h19.84l-1,4.8h-7.28l-9.28,43.76h7.28l-1,4.8H348.53l1-4.8h7.2Z" transform="translate(-60.27 -17.76)"/><path class="cls-6" d="M421.33,154.49A24.3,24.3,0,0,1,408,159.13c-13.76,0-12.56-16.64-10.32-27.28,2.16-10,8.16-27.52,21.44-27.52,6,0,9.6,3.68,11.52,8.56l-5.36,2.88c-1.2-3.44-3.36-6.4-7.6-6.4-8.88,0-13.12,16.32-14.48,22.64-3.92,18.32.64,22.08,5.92,22.08a14.49,14.49,0,0,0,7.52-2.48l3.44-16.08h-10l1-4.8h15.36Z" transform="translate(-60.27 -17.76)"/><path class="cls-6" d="M452.2,105.05h5.36l-4.8,22.4h16.48l4.81-22.4h5.35l-11.35,53.36h-5.37l5.6-26.16H451.8l-5.6,26.16h-5.36Z" transform="translate(-60.27 -17.76)"/><path class="cls-6" d="M510.2,109.85H498.68l1-4.8h28.16l-1,4.8H515.56l-10.32,48.56h-5.36Z" transform="translate(-60.27 -17.76)"/><path class="cls-6" d="M978.25,150.14c-4.16,5-9.6,8.72-15.68,8.72-13.92,0-12.4-16.8-10.16-27.36s7.92-27.44,21.84-27.44c6.08,0,9.44,3.52,11.2,8.64l-5.12,2.72c-1-3.36-3.12-6.32-7.2-6.32-9.76,0-13.6,15.36-15.12,22.4s-4.16,22.32,5.6,22.32c4.16,0,8.24-3.44,10.88-6.72Z" transform="translate(-60.27 -17.76)"/><path class="cls-6" d="M1030.09,131.42c-1.44,6.72-5.6,27.44-20.64,27.44-15.2,0-10.4-20.56-9-27.44,1.84-8.8,6.4-27.36,20.64-27.36C1036.17,104.06,1031.61,124.38,1030.09,131.42Zm-24,0c-3,14.4-3.12,22.4,4.4,22.4,9.28,0,12-13.12,14-22.4,2.16-10.08,5-22.32-4.48-22.32S1007.77,123.58,1006.09,131.42Z" transform="translate(-60.27 -17.76)"/><path class="cls-6" d="M1061.29,104.78l-8.24,38.8c-1.12,5.28-1.2,10.24,5.44,10.24s8.88-5,10-10.24l8.24-38.8h5.36l-8.64,40.4c-1.76,8.32-8.08,13.68-16,13.68-8.08,0-11.84-5.52-10.16-13.44l8.64-40.64Z" transform="translate(-60.27 -17.76)"/><path class="cls-6" d="M1122.25,150.14c-4.16,5-9.6,8.72-15.68,8.72-13.92,0-12.4-16.8-10.16-27.36s7.92-27.44,21.84-27.44c6.08,0,9.44,3.52,11.2,8.64l-5.12,2.72c-1-3.36-3.12-6.32-7.2-6.32-9.76,0-13.6,15.36-15.12,22.4s-4.16,22.32,5.6,22.32c4.16,0,8.24-3.44,10.88-6.72Z" transform="translate(-60.27 -17.76)"/><path class="cls-6" d="M1151.37,104.78h5.36l-4.8,22.4h16.48l4.8-22.4h5.36l-11.36,53.36h-5.36l5.6-26.16H1151l-5.6,26.16H1140Z" transform="translate(-60.27 -17.76)"/><path class="cls-6" d="M1253.37,131.66c-5.36-3.6-8.89-6.16-7.2-14,1.52-7.2,7.68-13.6,15.28-13.6s10,5.36,10,12.08l-5.44.8c0-3.92-1.12-7.84-5.68-7.84-5,0-7.84,4.08-8.8,8.56-.88,4.32-.4,5.68,7,10.72,5.68,3.92,9.52,7.2,7.76,15.44-1.76,8.4-7.68,15-16.64,15-9.44,0-11.52-6.24-10.56-14.72l5.52-.72c-.56,5.92-.25,10.4,6.24,10.4,4.64,0,8.64-3.12,10-9.52C1262.25,137.26,1258.25,134.86,1253.37,131.66Z" transform="translate(-60.27 -17.76)"/><path class="cls-6" d="M1305.2,109.58H1298l1-4.8h19.85l-1,4.8h-7.28l-9.29,43.76h7.29l-1,4.8h-19.85l1-4.8h7.2Z" transform="translate(-60.27 -17.76)"/><path class="cls-6" d="M1341.44,109.58l1-4.8h14.08c10.72,0,16,4.72,11.36,26.72-2.48,11.76-6.32,26.64-22.56,26.64h-14.24l1-4.8h4.32l9.28-43.76Zm.4,43.76h4.4c6.48,0,11.76-1.68,16.08-21.84,4.32-20.32-.8-21.92-5.52-21.92h-5.68Z" transform="translate(-60.27 -17.76)"/><path class="cls-6" d="M1393.52,104.78h26l-1,4.8h-20.64l-3.76,17.6h17l-1,4.8h-17l-4.56,21.36h20.64l-1,4.8h-26Z" transform="translate(-60.27 -17.76)"/></svg>