<svg id="Ebene_2" data-name="Ebene 2" xmlns="http://www.w3.org/2000/svg" viewBox="0 0 261.48 263.15"><defs><style>.cls-1,.cls-5{fill:#fdfffd;}.cls-1,.cls-3,.cls-4,.cls-6{stroke:#000;stroke-miterlimit:10;}.cls-1{stroke-width:5px;}.cls-2{font-size:30px;font-family:onblow, on blow;}.cls-3{stroke-width:0.25px;}.cls-4{fill:#00c800;}.cls-4,.cls-6{stroke-width:0.5px;}.cls-6{fill:none;}</style></defs><circle class="cls-1" cx="130.74" cy="130.74" r="128.24"/><text class="cls-2" transform="matrix(0.5, -0.8, 0.85, 0.53, 43.88, 93.19)">G</text><text class="cls-2" transform="matrix(0.68, -0.66, 0.7, 0.72, 56.24, 72.99)">O</text><text class="cls-2" transform="matrix(0.83, -0.47, 0.49, 0.87, 73.86, 55.61)">O</text><text class="cls-2" transform="matrix(0.92, -0.23, 0.24, 0.97, 95.18, 43.16)">D</text><text class="cls-2" transform="translate(121.04 37.41) rotate(-1.34) scale(0.95 1)"> </text><text class="cls-2" transform="translate(134.55 36.54) rotate(9.9) scale(0.95 1)">N</text><text class="cls-2" transform="translate(156.86 40.96) rotate(19.82) scale(0.95 1)">I</text><text class="cls-2" transform="matrix(0.82, 0.47, -0.5, 0.87, 165.54, 43.29)">G</text><text class="cls-2" transform="translate(186.03 55.25) rotate(42.65) scale(0.95 1)">H</text><text class="cls-2" transform="matrix(0.53, 0.79, -0.83, 0.56, 200.52, 67.76)">T</text><circle class="cls-3" cx="130.74" cy="130.74" r="85.55"/><path class="cls-4" d="M131.38,149.65c2.52,4.21,5.36,1.78,5.21,3s-.52,23.66-.52,23.66l7.91.19s10.26-54.53,1.81-46.6C135,140,128.4,144.68,131.38,149.65Z" transform="translate(-42.94 -17.76)"/><path class="cls-4" d="M266.19,146.7c-2.53,4.21-5.36,1.78-5.22,3s.52,23.66.52,23.66l-7.9.19S243.33,119,251.78,127c1.4,1.33,2.74,2.55,4,3.7.9.82,1.73,5.8,2.54,6.54.51.47,1-3.27,1.48-2.83C265.53,139.74,268.32,143.14,266.19,146.7Z" transform="translate(-42.94 -17.76)"/><path class="cls-4" d="M193.68,141.58l-45.22-16s-3-13.29,1.34-17.84c8.46-8.87,38.69-1.78,46.62,7.57l-4.87,12.87,5.69,7.85Z" transform="translate(-42.94 -17.76)"/><path class="cls-4" d="M197.24,141.67l50.5-14.29s2.3-19.07-2.09-23.41c-8.57-8.46-39.9,2.83-47.11,12.54l-2.86,11.22,3.32,8.35Z" transform="translate(-42.94 -17.76)"/><path class="cls-4" d="M195.29,162.79l-49-10c-1.74-9.55,1.32-21.74,1.32-21.74l45.78,12.53,3.08,7.86L193,159.2Z" transform="translate(-42.94 -17.76)"/><path class="cls-4" d="M200,162.52l50.85-11.3c1.24-9.72-2.5-19.61-2.5-19.61l-51.92,11.9,2.52,7.91-2.52,7.38Z" transform="translate(-42.94 -17.76)"/><path class="cls-4" d="M141.67,174.66c.68,0,30,2.37,57,1.73l2.73-.06s53.94-8.57,54.62-8.59c1.81,0-.2-13.8-1.64-13.76-.79,0-52.38,10.68-52.38,10.68l-2.7.06c-27.17.64-55.09-9.4-55.9-9.38C141.93,155.37,139.86,174.7,141.67,174.66Z" transform="translate(-42.94 -17.76)"/><path class="cls-5" d="M98.28,119.82c-1.64,3.72-.28,9.63,0,12.39.17,1.6,2.56-1.1,4-1.92,2.24-1.27,4,.44,5.19,2.66,3.08,5.74,6.24,8.88,6.68,15.31.14,2,2.13,5.84,3.13,7.54.82,1.39,5.09,3.73,6.41,4.68,2.75,2,10.35,12.15,10.64,20.81.54,16.14-3.84,24.58-2.62,27.13.61,1.28,3,0,2.18,2.23-1.4,3.95-3.73,4.26-4.2,5.13a13.57,13.57,0,0,0-.9,3c3.32,1.88,20.4,7.38,20.4,7.38,11.8-7.31-7.58-5.65-7.94-15.12,0-1,2.5-.51,3.32-.95,1.06-.57,2.62-6.43,3-16.05a235.8,235.8,0,0,0-.73-29.12c-.88-7.84-2.29-7.52,16.1-9.9,8.86-1.14,20.56-2.16,29.43-3.27,3.33-.42,3.14-1.93,4.88-2.3,3.28-.7,3.93,1.6,6.26,1.53,1.5,0,.22-16.23.22-16.23-4.66-1.47-3.61,6.93-5.1,7.87-1,.62-1.09-3.76-10.71-2.79-7.68.78-18.71-1.76-26.44-1.81-10.05-.06-25.85,2.65-28.41,1.6-5.1-2.09-3.86-5.34,2.11-8.08,2.5-1.15,15.51-6.47,18.87-14.42.79-1.88,2.22-2.71,3.13-4.53.64-1.28,2.18-5.79.82-5.43s-1.28,1.42-2,2.43c-.17-4.17-.28-6.81-.8-7-1.26-.53-1.61,4-1.75,8.78-.16,5.08-3.49,6.45-8.38,8.44s-6.12,2.85-10.49,2.85c-3.42,0-11,1.32-5.32-7.17,1.23-1.85,3.54-6.8,2-10.29-1.48-3.29-6.74-5.14-8.74-5.88-3.1-1.15-6.14-.21-8.67,1.86s-4.23,10.58-1.53,12.24c.5.31-5.92.3-7.28.82C104.23,114.53,99.92,116.1,98.28,119.82Z" transform="translate(-42.94 -17.76)"/><path class="cls-6" d="M98.28,119.82c-1.64,3.72-.28,9.63,0,12.39.17,1.6,2.56-1.1,4-1.92,2.24-1.27,4,.44,5.19,2.66,3.08,5.74,6.24,8.88,6.68,15.31.14,2,2.13,5.84,3.13,7.54.82,1.39,5.09,3.73,6.41,4.68,2.75,2,10.35,12.15,10.64,20.81.54,16.14-3.84,24.58-2.62,27.13.61,1.28,3,0,2.18,2.23-1.4,3.95-3.73,4.26-4.2,5.13a13.57,13.57,0,0,0-.9,3c3.32,1.88,20.4,7.38,20.4,7.38,11.8-7.31-7.58-5.65-7.94-15.12,0-1,2.5-.51,3.32-.95,1.06-.57,2.62-6.43,3-16.05a235.8,235.8,0,0,0-.73-29.12c-.88-7.84-2.29-7.52,16.1-9.9,8.86-1.14,20.56-2.16,29.43-3.27,3.33-.42,3.14-1.93,4.88-2.3,3.28-.7,3.93,1.6,6.26,1.53,1.5,0,.22-16.23.22-16.23-4.66-1.47-3.61,6.93-5.1,7.87-1,.62-1.09-3.76-10.71-2.79-7.68.78-18.71-1.76-26.44-1.81-10.05-.06-25.85,2.65-28.41,1.6-5.1-2.09-3.86-5.34,2.11-8.08,2.5-1.15,15.51-6.47,18.87-14.42.79-1.88,2.22-2.71,3.13-4.53.64-1.28,2.18-5.79.82-5.43s-1.28,1.42-2,2.43c-.17-4.17-.28-6.81-.8-7-1.26-.53-1.61,4-1.75,8.78-.16,5.08-3.49,6.45-8.38,8.44s-6.12,2.85-10.49,2.85c-3.42,0-11,1.32-5.32-7.17,1.23-1.85,3.54-6.8,2-10.29-1.48-3.29-6.74-5.14-8.74-5.88-3.1-1.15-6.14-.21-8.67,1.86s-4.23,10.58-1.53,12.24c.5.31-5.92.3-7.28.82C104.23,114.53,99.92,116.1,98.28,119.82Z" transform="translate(-42.94 -17.76)"/><text class="cls-2" transform="translate(17.86 177.11) rotate(61.24) scale(1.16 1)">C</text><text class="cls-2" transform="matrix(0.82, 0.82, -0.71, 0.71, 32.4, 203.14)">O</text><text class="cls-2" transform="translate(58.56 227.8) rotate(29.19) scale(1.16 1)">U</text><text class="cls-2" transform="matrix(1.11, 0.31, -0.27, 0.96, 84.82, 241.92)">C</text><text class="cls-2" transform="translate(112.61 249.29) rotate(2.98) scale(1.16 1)">H</text><text class="cls-2" transform="translate(140.12 250.15) rotate(-7.6) scale(1.16 1)"> </text><text class="cls-2" transform="translate(160.78 247.56) rotate(-19.06) scale(1.16 1)">S</text><text class="cls-2" transform="matrix(1.01, -0.57, 0.49, 0.87, 188.44, 237.06)">I</text><text class="cls-2" transform="matrix(0.87, -0.77, 0.66, 0.75, 202.28, 230.25)">D</text><text class="cls-2" transform="matrix(0.59, -1, 0.86, 0.51, 230.48, 203.84)">E</text></svg>