<?xml version="1.0" encoding="utf-8"?>
<!-- Generator: Adobe Illustrator 24.0.1, SVG Export Plug-In . SVG Version: 6.00 Build 0)  -->
<svg version="1.1" id="Ebene_1" xmlns="http://www.w3.org/2000/svg" xmlns:xlink="http://www.w3.org/1999/xlink" x="0px" y="0px"
	 viewBox="0 0 104.73 109.12" style="enable-background:new 0 0 104.73 109.12;" xml:space="preserve">
<style type="text/css">
	.st0{fill:none;stroke:#53BB6F;stroke-width:2;stroke-miterlimit:10;}
	.st1{fill:#53BB6F;}
</style>
<circle class="st0" cx="52.68" cy="54.17" r="48.82"/>
<g>
	<path class="st1" d="M35.93,60.78c0,0.54-0.02,0.58-0.26,0.72c-1.3,0.68-3.26,0.9-4.82,0.9c-4.9,0-9.24-2.32-9.24-7.84
		c0-3.2,1.66-5.44,3.48-6.54c1.92-1.16,3.7-1.3,5.38-1.3c1.38,0,3.14,0.24,3.54,0.32c0.42,0.08,1.12,0.2,1.58,0.22
		c0.24,0.02,0.28,0.1,0.28,0.24c0,0.22-0.14,0.78-0.14,3.28c0,0.32-0.06,0.42-0.22,0.42c-0.14,0-0.18-0.1-0.2-0.26
		c-0.06-0.46-0.16-1.1-0.68-1.66c-0.6-0.64-2.2-1.56-4.46-1.56c-1.1,0-2.56,0.08-3.96,1.24c-1.12,0.94-1.84,2.44-1.84,4.9
		c0,4.3,2.74,7.52,6.96,7.52c0.52,0,1.22,0,1.7-0.22c0.3-0.14,0.38-0.4,0.38-0.74v-1.88c0-1,0-1.76-0.02-2.36
		c-0.02-0.68-0.2-1-0.86-1.14c-0.16-0.04-0.5-0.06-0.78-0.06c-0.18,0-0.3-0.04-0.3-0.16c0-0.16,0.14-0.2,0.42-0.2
		c1.04,0,2.3,0.06,2.9,0.06c0.62,0,1.68-0.06,2.34-0.06c0.26,0,0.4,0.04,0.4,0.2c0,0.12-0.12,0.16-0.26,0.16
		c-0.16,0-0.3,0.02-0.54,0.06c-0.54,0.1-0.74,0.44-0.76,1.14c-0.02,0.6-0.02,1.4-0.02,2.4V60.78z"/>
	<path class="st1" d="M42.62,59.4c0.04,1.56,0.3,2.08,0.7,2.22c0.34,0.12,0.72,0.14,1.04,0.14c0.22,0,0.34,0.04,0.34,0.16
		c0,0.16-0.18,0.2-0.46,0.2c-1.3,0-2.1-0.06-2.48-0.06c-0.18,0-1.12,0.06-2.16,0.06c-0.26,0-0.44-0.02-0.44-0.2
		c0-0.12,0.12-0.16,0.32-0.16c0.26,0,0.62-0.02,0.9-0.1c0.52-0.16,0.6-0.74,0.62-2.48l0.18-11.78c0-0.4,0.06-0.68,0.26-0.68
		c0.22,0,0.4,0.26,0.74,0.62c0.24,0.26,3.28,3.46,6.2,6.36c1.36,1.36,4.06,4.24,4.4,4.56h0.1l-0.2-8.98c-0.02-1.22-0.2-1.6-0.68-1.8
		c-0.3-0.12-0.78-0.12-1.06-0.12c-0.24,0-0.32-0.06-0.32-0.18c0-0.16,0.22-0.18,0.52-0.18c1.04,0,2,0.06,2.42,0.06
		c0.22,0,0.98-0.06,1.96-0.06c0.26,0,0.46,0.02,0.46,0.18c0,0.12-0.12,0.18-0.36,0.18c-0.2,0-0.36,0-0.6,0.06
		c-0.56,0.16-0.72,0.58-0.74,1.7l-0.22,12.62c0,0.44-0.08,0.62-0.26,0.62c-0.22,0-0.46-0.22-0.68-0.44c-1.26-1.2-3.82-3.82-5.9-5.88
		c-2.18-2.16-4.4-4.6-4.76-4.98H42.4L42.62,59.4z"/>
	<path class="st1" d="M60.54,60.22c-1.96-1.72-2.48-3.96-2.48-5.9c0-1.36,0.42-3.72,2.34-5.48c1.44-1.32,3.34-2.12,6.32-2.12
		c1.24,0,1.98,0.08,2.9,0.2c0.76,0.1,1.4,0.28,2,0.34c0.22,0.02,0.3,0.12,0.3,0.24c0,0.16-0.06,0.4-0.1,1.1
		c-0.04,0.66-0.02,1.76-0.06,2.16c-0.02,0.3-0.06,0.46-0.24,0.46c-0.16,0-0.2-0.16-0.2-0.44c-0.02-0.62-0.28-1.32-0.78-1.84
		c-0.66-0.7-2.22-1.24-4.06-1.24c-1.74,0-2.88,0.44-3.76,1.24c-1.46,1.34-1.84,3.24-1.84,5.18c0,4.76,3.62,7.12,6.3,7.12
		c1.78,0,2.86-0.2,3.66-1.12c0.34-0.38,0.6-0.96,0.68-1.32c0.06-0.32,0.1-0.4,0.26-0.4c0.14,0,0.18,0.14,0.18,0.3
		c0,0.24-0.24,1.98-0.44,2.66c-0.1,0.34-0.18,0.44-0.52,0.58c-0.8,0.32-2.32,0.46-3.6,0.46C64.66,62.4,62.37,61.8,60.54,60.22z"/>
	<path class="st1" d="M75.14,61.88c-0.32-0.14-0.38-0.24-0.38-0.68c0-1.1,0.08-2.3,0.1-2.62c0.02-0.3,0.08-0.52,0.24-0.52
		c0.18,0,0.2,0.18,0.2,0.34c0,0.26,0.08,0.68,0.18,1.02c0.44,1.48,1.62,2.02,2.86,2.02c1.8,0,2.68-1.22,2.68-2.28
		c0-0.98-0.3-1.9-1.96-3.2l-0.92-0.72c-2.2-1.72-2.96-3.12-2.96-4.74c0-2.2,1.84-3.78,4.62-3.78c1.3,0,2.14,0.2,2.66,0.34
		c0.18,0.04,0.28,0.1,0.28,0.24c0,0.26-0.08,0.84-0.08,2.4c0,0.44-0.06,0.6-0.22,0.6c-0.14,0-0.2-0.12-0.2-0.36
		c0-0.18-0.1-0.8-0.52-1.32c-0.3-0.38-0.88-0.98-2.18-0.98c-1.48,0-2.38,0.86-2.38,2.06c0,0.92,0.46,1.62,2.12,2.88L79.85,53
		c2.42,1.82,3.28,3.2,3.28,5.1c0,1.16-0.44,2.54-1.88,3.48c-1,0.64-2.12,0.82-3.18,0.82C76.9,62.4,76,62.26,75.14,61.88z"/>
</g>
</svg>
